<svg width="2170" height="874" viewBox="0 0 2170 874" fill="none" xmlns="http://www.w3.org/2000/svg">
<rect width="2170" height="874" fill="#050816"/>
<mask id="path-1-outside-1_404_1657" maskUnits="userSpaceOnUse" x="221" y="226" width="1548" height="426" fill="black">
<rect fill="white" x="221" y="226" width="1548" height="426"/>
<path d="M301.8 542.8L278.4 649H225L326.4 229H395.4L495 649H441.6L418.8 542.8H301.8ZM409.2 497.8L360 268.6L311.4 497.8H409.2ZM630.623 520.6V649H579.623V229H630.623V455.8L724.823 349H789.023L684.623 467.2L797.423 649H734.423L646.223 502.6L630.623 520.6ZM1096.25 649C1091.05 649 1085.25 647.4 1078.85 644.2C1072.85 641 1067.65 636.6 1063.25 631C1054.05 643 1041.85 649 1026.65 649H973.247C942.847 649 920.647 643 906.647 631C893.047 618.6 886.247 597.6 886.247 568V556C886.247 494 915.447 463 973.847 463H1048.25V433C1048.25 420.6 1044.45 411 1036.85 404.2C1029.25 397.4 1018.05 394 1003.25 394H910.247V349H997.247C1032.05 349 1057.65 356.6 1074.05 371.8C1090.85 387 1099.25 411.4 1099.25 445V589C1099.25 595 1101.45 599.6 1105.85 602.8C1110.65 605.6 1118.45 607 1129.25 607V649H1096.25ZM1020.65 604C1032.65 604 1040.25 601.2 1043.45 595.6C1046.65 590 1048.25 582.8 1048.25 574V508H973.247C962.847 508 954.247 511.4 947.447 518.2C940.647 525 937.247 533.6 937.247 544V574C937.247 584.4 939.647 592 944.447 596.8C949.247 601.6 956.847 604 967.247 604H1020.65ZM1423.27 574C1423.27 599.2 1415.47 618 1399.87 630.4C1384.67 642.8 1362.47 649 1333.27 649H1243.87V604H1339.27C1350.07 604 1358.27 601.8 1363.87 597.4C1369.47 592.6 1372.27 585.8 1372.27 577V545.2C1372.27 527.2 1363.67 518.2 1346.47 518.2H1324.27C1296.27 518.2 1275.27 512.2 1261.27 500.2C1247.67 487.8 1240.87 468.4 1240.87 442V424.6C1240.87 397.8 1248.47 378.6 1263.67 367C1278.87 355 1301.27 349 1330.87 349H1411.27V394H1324.87C1314.87 394 1306.87 396.4 1300.87 401.2C1294.87 405.6 1291.87 412.2 1291.87 421V442.6C1291.87 451.8 1294.47 458.6 1299.67 463C1305.27 467.4 1312.27 469.6 1320.67 469.6H1341.07C1367.87 469.6 1388.27 476.2 1402.27 489.4C1416.27 502.2 1423.27 521.4 1423.27 547V574ZM1597.29 229V361C1609.29 353 1624.29 349 1642.29 349H1669.89C1702.29 349 1726.29 356.6 1741.89 371.8C1757.89 387 1765.89 411.4 1765.89 445V649H1714.89V433C1714.89 421 1711.29 411.6 1704.09 404.8C1697.29 397.6 1687.89 394 1675.89 394H1636.29C1623.49 394 1613.89 397.4 1607.49 404.2C1601.09 410.6 1597.69 417.6 1597.29 425.2V649H1546.29V229H1597.29Z"/>
</mask>
<path d="M301.8 542.8L278.4 649H225L326.4 229H395.4L495 649H441.6L418.8 542.8H301.8ZM409.2 497.8L360 268.6L311.4 497.8H409.2ZM630.623 520.6V649H579.623V229H630.623V455.8L724.823 349H789.023L684.623 467.2L797.423 649H734.423L646.223 502.6L630.623 520.6ZM1096.25 649C1091.05 649 1085.25 647.4 1078.85 644.2C1072.85 641 1067.65 636.6 1063.25 631C1054.05 643 1041.85 649 1026.65 649H973.247C942.847 649 920.647 643 906.647 631C893.047 618.6 886.247 597.6 886.247 568V556C886.247 494 915.447 463 973.847 463H1048.25V433C1048.25 420.6 1044.45 411 1036.85 404.2C1029.25 397.4 1018.05 394 1003.25 394H910.247V349H997.247C1032.05 349 1057.65 356.6 1074.05 371.8C1090.85 387 1099.25 411.4 1099.25 445V589C1099.25 595 1101.45 599.6 1105.85 602.8C1110.65 605.6 1118.45 607 1129.25 607V649H1096.25ZM1020.65 604C1032.65 604 1040.25 601.2 1043.45 595.6C1046.65 590 1048.25 582.8 1048.25 574V508H973.247C962.847 508 954.247 511.4 947.447 518.2C940.647 525 937.247 533.6 937.247 544V574C937.247 584.4 939.647 592 944.447 596.8C949.247 601.6 956.847 604 967.247 604H1020.65ZM1423.27 574C1423.27 599.2 1415.47 618 1399.87 630.4C1384.67 642.8 1362.47 649 1333.27 649H1243.87V604H1339.27C1350.07 604 1358.27 601.8 1363.87 597.4C1369.47 592.6 1372.27 585.8 1372.27 577V545.2C1372.27 527.2 1363.67 518.2 1346.47 518.2H1324.27C1296.27 518.2 1275.27 512.2 1261.27 500.2C1247.67 487.8 1240.87 468.4 1240.87 442V424.6C1240.87 397.8 1248.47 378.6 1263.67 367C1278.87 355 1301.27 349 1330.87 349H1411.27V394H1324.87C1314.87 394 1306.87 396.4 1300.87 401.2C1294.87 405.6 1291.87 412.2 1291.87 421V442.6C1291.87 451.8 1294.47 458.6 1299.67 463C1305.27 467.4 1312.27 469.6 1320.67 469.6H1341.07C1367.87 469.6 1388.27 476.2 1402.27 489.4C1416.27 502.2 1423.27 521.4 1423.27 547V574ZM1597.29 229V361C1609.29 353 1624.29 349 1642.29 349H1669.89C1702.29 349 1726.29 356.6 1741.89 371.8C1757.89 387 1765.89 411.4 1765.89 445V649H1714.89V433C1714.89 421 1711.29 411.6 1704.09 404.8C1697.29 397.6 1687.89 394 1675.89 394H1636.29C1623.49 394 1613.89 397.4 1607.49 404.2C1601.09 410.6 1597.69 417.6 1597.29 425.2V649H1546.29V229H1597.29Z" fill="#9770EC"/>
<path d="M301.8 542.8V539.8H299.389L298.87 542.154L301.8 542.8ZM278.4 649V652H280.811L281.33 649.646L278.4 649ZM225 649L222.084 648.296L221.19 652H225V649ZM326.4 229V226H324.038L323.484 228.296L326.4 229ZM395.4 229L398.319 228.308L397.772 226H395.4V229ZM495 649V652H498.795L497.919 648.308L495 649ZM441.6 649L438.667 649.63L439.176 652H441.6V649ZM418.8 542.8L421.733 542.17L421.224 539.8H418.8V542.8ZM409.2 497.8V500.8H412.912L412.133 497.17L409.2 497.8ZM360 268.6L362.933 267.97L357.065 267.978L360 268.6ZM311.4 497.8L308.465 497.178L307.697 500.8H311.4V497.8ZM298.87 542.154L275.47 648.354L281.33 649.646L304.73 543.446L298.87 542.154ZM278.4 646H225V652H278.4V646ZM227.916 649.704L329.316 229.704L323.484 228.296L222.084 648.296L227.916 649.704ZM326.4 232H395.4V226H326.4V232ZM392.481 229.692L492.081 649.692L497.919 648.308L398.319 228.308L392.481 229.692ZM495 646H441.6V652H495V646ZM444.533 648.37L421.733 542.17L415.867 543.43L438.667 649.63L444.533 648.37ZM418.8 539.8H301.8V545.8H418.8V539.8ZM412.133 497.17L362.933 267.97L357.067 269.23L406.267 498.43L412.133 497.17ZM357.065 267.978L308.465 497.178L314.335 498.422L362.935 269.222L357.065 267.978ZM311.4 500.8H409.2V494.8H311.4V500.8ZM630.623 520.6L628.356 518.635L627.623 519.481V520.6H630.623ZM630.623 649V652H633.623V649H630.623ZM579.623 649H576.623V652H579.623V649ZM579.623 229V226H576.623V229H579.623ZM630.623 229H633.623V226H630.623V229ZM630.623 455.8H627.623V463.737L632.873 457.784L630.623 455.8ZM724.823 349V346H723.469L722.574 347.016L724.823 349ZM789.023 349L791.272 350.986L795.676 346H789.023V349ZM684.623 467.2L682.375 465.214L680.898 466.886L682.074 468.782L684.623 467.2ZM797.423 649V652H802.815L799.973 647.418L797.423 649ZM734.423 649L731.854 650.548L732.728 652H734.423V649ZM646.223 502.6L648.793 501.052L646.662 497.514L643.956 500.635L646.223 502.6ZM627.623 520.6V649H633.623V520.6H627.623ZM630.623 646H579.623V652H630.623V646ZM582.623 649V229H576.623V649H582.623ZM579.623 232H630.623V226H579.623V232ZM627.623 229V455.8H633.623V229H627.623ZM632.873 457.784L727.073 350.984L722.574 347.016L628.374 453.816L632.873 457.784ZM724.823 352H789.023V346H724.823V352ZM786.775 347.014L682.375 465.214L686.872 469.186L791.272 350.986L786.775 347.014ZM682.074 468.782L794.874 650.582L799.973 647.418L687.173 465.618L682.074 468.782ZM797.423 646H734.423V652H797.423V646ZM736.993 647.452L648.793 501.052L643.654 504.148L731.854 650.548L736.993 647.452ZM643.956 500.635L628.356 518.635L632.891 522.565L648.491 504.565L643.956 500.635ZM1078.85 644.2L1077.44 646.847L1077.47 646.866L1077.51 646.883L1078.85 644.2ZM1063.25 631L1065.61 629.147L1063.22 626.107L1060.87 629.175L1063.25 631ZM906.647 631L904.626 633.217L904.66 633.248L904.695 633.278L906.647 631ZM1048.25 463V466H1051.25V463H1048.25ZM910.247 394H907.247V397H910.247V394ZM910.247 349V346H907.247V349H910.247ZM1074.05 371.8L1072.01 374L1072.02 374.013L1072.03 374.025L1074.05 371.8ZM1105.85 602.8L1104.08 605.226L1104.2 605.315L1104.34 605.391L1105.85 602.8ZM1129.25 607H1132.25V604H1129.25V607ZM1129.25 649V652H1132.25V649H1129.25ZM1043.45 595.6L1046.05 597.088L1046.05 597.088L1043.45 595.6ZM1048.25 508H1051.25V505H1048.25V508ZM947.447 518.2L949.568 520.321L949.568 520.321L947.447 518.2ZM944.447 596.8L942.326 598.921L942.326 598.921L944.447 596.8ZM1096.25 646C1091.65 646 1086.32 644.582 1080.19 641.517L1077.51 646.883C1084.17 650.218 1090.44 652 1096.25 652V646ZM1080.26 641.553C1074.64 638.558 1069.76 634.435 1065.61 629.147L1060.89 632.853C1065.53 638.765 1071.05 643.442 1077.44 646.847L1080.26 641.553ZM1060.87 629.175C1052.24 640.43 1040.92 646 1026.65 646V652C1042.77 652 1055.86 645.57 1065.63 632.825L1060.87 629.175ZM1026.65 646H973.247V652H1026.65V646ZM973.247 646C943.131 646 921.799 640.036 908.599 628.722L904.695 633.278C919.495 645.964 942.563 652 973.247 652V646ZM908.668 628.783C895.984 617.218 889.247 597.256 889.247 568H883.247C883.247 597.944 890.11 619.982 904.626 633.217L908.668 628.783ZM889.247 568V556H883.247V568H889.247ZM889.247 556C889.247 525.419 896.452 503.042 910.331 488.307C924.178 473.606 945.157 466 973.847 466V460C944.137 460 921.316 467.894 905.963 484.193C890.642 500.458 883.247 524.581 883.247 556H889.247ZM973.847 466H1048.25V460H973.847V466ZM1051.25 463V433H1045.25V463H1051.25ZM1051.25 433C1051.25 419.946 1047.22 409.454 1038.85 401.964L1034.85 406.436C1041.68 412.546 1045.25 421.253 1045.25 433H1051.25ZM1038.85 401.964C1030.49 394.49 1018.46 391 1003.25 391V397C1017.64 397 1028 400.31 1034.85 406.436L1038.85 401.964ZM1003.25 391H910.247V397H1003.25V391ZM913.247 394V349H907.247V394H913.247ZM910.247 352H997.247V346H910.247V352ZM997.247 352C1031.7 352 1056.4 359.536 1072.01 374L1076.09 369.6C1058.89 353.664 1032.4 346 997.247 346V352ZM1072.03 374.025C1087.95 388.428 1096.25 411.835 1096.25 445H1102.25C1102.25 410.965 1093.74 385.572 1076.06 369.575L1072.03 374.025ZM1096.25 445V589H1102.25V445H1096.25ZM1096.25 589C1096.25 595.845 1098.82 601.398 1104.08 605.226L1107.61 600.374C1104.08 597.802 1102.25 594.155 1102.25 589H1096.25ZM1104.34 605.391C1109.85 608.61 1118.33 610 1129.25 610V604C1118.56 604 1111.44 602.59 1107.36 600.209L1104.34 605.391ZM1126.25 607V649H1132.25V607H1126.25ZM1129.25 646H1096.25V652H1129.25V646ZM1020.65 607C1032.81 607 1041.98 604.211 1046.05 597.088L1040.84 594.112C1038.51 598.189 1032.48 601 1020.65 601V607ZM1046.05 597.088C1049.59 590.899 1051.25 583.14 1051.25 574H1045.25C1045.25 582.46 1043.71 589.1 1040.84 594.112L1046.05 597.088ZM1051.25 574V508H1045.25V574H1051.25ZM1048.25 505H973.247V511H1048.25V505ZM973.247 505C962.123 505 952.737 508.667 945.326 516.079L949.568 520.321C955.757 514.133 963.571 511 973.247 511V505ZM945.326 516.079C937.914 523.49 934.247 532.876 934.247 544H940.247C940.247 534.324 943.379 526.51 949.568 520.321L945.326 516.079ZM934.247 544V574H940.247V544H934.247ZM934.247 574C934.247 584.781 936.725 593.321 942.326 598.921L946.568 594.679C942.568 590.679 940.247 584.019 940.247 574H934.247ZM942.326 598.921C947.926 604.522 956.466 607 967.247 607V601C957.228 601 950.568 598.678 946.568 594.679L942.326 598.921ZM967.247 607H1020.65V601H967.247V607ZM1399.87 630.4L1398 628.052L1397.99 628.063L1397.97 628.075L1399.87 630.4ZM1243.87 649H1240.87V652H1243.87V649ZM1243.87 604V601H1240.87V604H1243.87ZM1363.87 597.4L1365.72 599.759L1365.77 599.719L1365.82 599.678L1363.87 597.4ZM1261.27 500.2L1259.25 502.417L1259.28 502.448L1259.32 502.478L1261.27 500.2ZM1263.67 367L1265.49 369.385L1265.51 369.37L1265.53 369.355L1263.67 367ZM1411.27 349H1414.27V346H1411.27V349ZM1411.27 394V397H1414.27V394H1411.27ZM1300.87 401.2L1302.64 403.619L1302.7 403.582L1302.74 403.543L1300.87 401.2ZM1299.67 463L1297.73 465.29L1297.77 465.325L1297.82 465.359L1299.67 463ZM1402.27 489.4L1400.21 491.583L1400.23 491.599L1400.25 491.614L1402.27 489.4ZM1420.27 574C1420.27 598.55 1412.7 616.367 1398 628.052L1401.74 632.748C1418.24 619.633 1426.27 599.85 1426.27 574H1420.27ZM1397.97 628.075C1383.52 639.87 1362.1 646 1333.27 646V652C1362.84 652 1385.82 645.73 1401.77 632.725L1397.97 628.075ZM1333.27 646H1243.87V652H1333.27V646ZM1246.87 649V604H1240.87V649H1246.87ZM1243.87 607H1339.27V601H1243.87V607ZM1339.27 607C1350.41 607 1359.38 604.74 1365.72 599.759L1362.02 595.041C1357.16 598.86 1349.73 601 1339.27 601V607ZM1365.82 599.678C1372.22 594.197 1375.27 586.49 1375.27 577H1369.27C1369.27 585.11 1366.72 591.003 1361.92 595.122L1365.82 599.678ZM1375.27 577V545.2H1369.27V577H1375.27ZM1375.27 545.2C1375.27 535.771 1373.02 528.142 1367.99 522.877C1362.93 517.587 1355.57 515.2 1346.47 515.2V521.2C1354.57 521.2 1360.11 523.313 1363.65 527.023C1367.22 530.758 1369.27 536.629 1369.27 545.2H1375.27ZM1346.47 515.2H1324.27V521.2H1346.47V515.2ZM1324.27 515.2C1296.63 515.2 1276.46 509.267 1263.22 497.922L1259.32 502.478C1274.08 515.133 1295.91 521.2 1324.27 521.2V515.2ZM1263.29 497.983C1250.55 486.362 1243.87 467.93 1243.87 442H1237.87C1237.87 468.87 1244.79 489.238 1259.25 502.417L1263.29 497.983ZM1243.87 442V424.6H1237.87V442H1243.87ZM1243.87 424.6C1243.87 398.337 1251.3 380.213 1265.49 369.385L1261.85 364.615C1245.64 376.987 1237.87 397.263 1237.87 424.6H1243.87ZM1265.53 369.355C1279.98 357.943 1301.61 352 1330.87 352V346C1300.93 346 1277.76 352.057 1261.81 364.645L1265.53 369.355ZM1330.87 352H1411.27V346H1330.87V352ZM1408.27 349V394H1414.27V349H1408.27ZM1411.27 391H1324.87V397H1411.27V391ZM1324.87 391C1314.4 391 1305.67 393.518 1299 398.857L1302.74 403.543C1308.07 399.282 1315.34 397 1324.87 397V391ZM1299.1 398.781C1292.18 403.854 1288.87 411.442 1288.87 421H1294.87C1294.87 412.958 1297.56 407.346 1302.64 403.619L1299.1 398.781ZM1288.87 421V442.6H1294.87V421H1288.87ZM1288.87 442.6C1288.87 452.355 1291.64 460.138 1297.73 465.29L1301.61 460.71C1297.3 457.062 1294.87 451.245 1294.87 442.6H1288.87ZM1297.82 465.359C1304.04 470.246 1311.72 472.6 1320.67 472.6V466.6C1312.82 466.6 1306.5 464.554 1301.52 460.641L1297.82 465.359ZM1320.67 472.6H1341.07V466.6H1320.67V472.6ZM1341.07 472.6C1367.41 472.6 1386.96 479.084 1400.21 491.583L1404.33 487.217C1389.58 473.316 1368.33 466.6 1341.07 466.6V472.6ZM1400.25 491.614C1413.43 503.667 1420.27 521.935 1420.27 547H1426.27C1426.27 520.865 1419.11 500.733 1404.29 487.186L1400.25 491.614ZM1420.27 547V574H1426.27V547H1420.27ZM1597.29 229H1600.29V226H1597.29V229ZM1597.29 361H1594.29V366.606L1598.96 363.496L1597.29 361ZM1741.89 371.8L1739.8 373.949L1739.81 373.962L1739.83 373.975L1741.89 371.8ZM1765.89 649V652H1768.89V649H1765.89ZM1714.89 649H1711.89V652H1714.89V649ZM1704.09 404.8L1701.91 406.86L1701.97 406.922L1702.03 406.981L1704.09 404.8ZM1607.49 404.2L1609.62 406.321L1609.65 406.289L1609.68 406.256L1607.49 404.2ZM1597.29 425.2L1594.3 425.042L1594.29 425.121V425.2H1597.29ZM1597.29 649V652H1600.29V649H1597.29ZM1546.29 649H1543.29V652H1546.29V649ZM1546.29 229V226H1543.29V229H1546.29ZM1594.29 229V361H1600.29V229H1594.29ZM1598.96 363.496C1610.36 355.898 1624.74 352 1642.29 352V346C1623.85 346 1608.23 350.102 1595.63 358.504L1598.96 363.496ZM1642.29 352H1669.89V346H1642.29V352ZM1669.89 352C1701.89 352 1724.98 359.511 1739.8 373.949L1743.99 369.651C1727.61 353.689 1702.7 346 1669.89 346V352ZM1739.83 373.975C1754.98 388.37 1762.89 411.797 1762.89 445H1768.89C1768.89 411.003 1760.81 385.629 1743.96 369.625L1739.83 373.975ZM1762.89 445V649H1768.89V445H1762.89ZM1765.89 646H1714.89V652H1765.89V646ZM1717.89 649V433H1711.89V649H1717.89ZM1717.89 433C1717.89 420.363 1714.08 410.103 1706.15 402.619L1702.03 406.981C1708.51 413.097 1711.89 421.637 1711.89 433H1717.89ZM1706.27 402.74C1698.79 394.816 1688.53 391 1675.89 391V397C1687.26 397 1695.8 400.384 1701.91 406.86L1706.27 402.74ZM1675.89 391H1636.29V397H1675.89V391ZM1636.29 391C1622.98 391 1612.46 394.544 1605.31 402.144L1609.68 406.256C1615.33 400.256 1624 397 1636.29 397V391ZM1605.37 402.079C1598.55 408.898 1594.74 416.566 1594.3 425.042L1600.29 425.358C1600.64 418.633 1603.63 412.302 1609.62 406.321L1605.37 402.079ZM1594.29 425.2V649H1600.29V425.2H1594.29ZM1597.29 646H1546.29V652H1597.29V646ZM1549.29 649V229H1543.29V649H1549.29ZM1546.29 232H1597.29V226H1546.29V232Z" fill="#9770EC" mask="url(#path-1-outside-1_404_1657)"/>
<mask id="path-3-outside-2_404_1657" maskUnits="userSpaceOnUse" x="1864" y="575" width="77" height="77" fill="black">
<rect fill="white" x="1864" y="575" width="77" height="77"/>
<path d="M1925 591V636H1880V591H1925Z"/>
</mask>
<path d="M1925 591V636H1880V591H1925Z" fill="#F45516"/>
<path d="M1925 591H1941V575H1925V591ZM1925 636V652H1941V636H1925ZM1880 636H1864V652H1880V636ZM1880 591V575H1864V591H1880ZM1909 591V636H1941V591H1909ZM1925 620H1880V652H1925V620ZM1896 636V591H1864V636H1896ZM1880 607H1925V575H1880V607Z" fill="#F45516" mask="url(#path-3-outside-2_404_1657)"/>
</svg>
