<svg width="826" height="717" viewBox="0 0 826 717" fill="none" xmlns="http://www.w3.org/2000/svg">
<path d="M412.829 633.4C502.888 633.401 591.114 633.401 682.962 633.401C592.52 476.447 504.05 322.913 415.471 169.192C393.547 190.937 392.509 197.266 406.703 221.88C475.242 340.727 543.815 459.554 612.347 578.405C615.644 584.121 618.677 589.99 622.838 597.637C617.564 598.322 613.767 599.241 609.969 599.246C546.462 599.336 482.952 599.06 419.449 599.558C408.861 599.642 403.204 596.239 398.022 586.999C361.347 521.596 324.043 456.545 285.9 389.555C281.683 396.139 277.986 401.432 274.772 407.003C218.101 505.244 161.357 603.443 105.055 701.895C98.9963 712.489 92.4966 717.559 79.5588 716.951C54.232 715.761 28.8098 716.602 0 716.602C94.366 552.86 187.009 392.108 281.254 228.577C299.266 259.581 315.712 287.755 332.029 316.004C367.106 376.73 403.199 436.909 436.587 498.552C448.813 521.125 462.313 532.561 490.073 523.73C487.312 518.517 484.568 512.924 481.464 507.54C424.514 408.748 367.794 309.821 310.202 211.405C302.648 198.497 303.141 189.28 310.533 176.827C341.972 123.863 372.357 70.2747 403.185 16.9475C406.145 11.8268 409.503 6.93586 413.906 0C551.591 238.903 688.128 475.818 826 715.047C595.216 715.047 367.077 715.047 136.412 715.047C186.356 628.167 235.425 542.809 285.741 455.282C313.221 503.72 339.452 549.956 367.452 599.312C351.247 599.312 338.143 599.312 325.039 599.312C293.55 599.312 293.55 599.312 280.999 633.4C324.905 633.4 367.951 633.4 412.829 633.4Z" fill="#F45516"/>
</svg>
